<svg width="602" height="342" viewBox="0 0 602 342" fill="none" xmlns="http://www.w3.org/2000/svg">
<rect width="602" height="341.303" fill="white"/>
<path d="M374 231.711V56.7109H453.5C472.5 56.7109 489.25 60.3776 503.75 67.7109C518.25 74.8776 529.583 84.9609 537.75 97.9609C545.917 110.961 550 126.378 550 144.211C550 161.878 545.917 177.294 537.75 190.461C529.583 203.461 518.25 213.628 503.75 220.961C489.25 228.128 472.5 231.711 453.5 231.711H374ZM414.5 198.461H451.5C463.167 198.461 473.25 196.294 481.75 191.961C490.417 187.461 497.083 181.128 501.75 172.961C506.583 164.794 509 155.211 509 144.211C509 133.044 506.583 123.461 501.75 115.461C497.083 107.294 490.417 101.044 481.75 96.7109C473.25 92.2109 463.167 89.9609 451.5 89.9609H414.5V198.461Z" fill="black"/>
<path d="M313.75 57.7109C329.723 57.7109 343.656 60.3419 355.46 65.7158C367.275 70.9284 376.503 78.542 383.017 88.5771C389.548 98.6384 392.75 110.561 392.75 124.211C392.75 137.703 389.544 149.54 383.017 159.595C376.508 169.621 367.293 177.311 355.494 182.69L355.461 182.706C343.659 187.913 329.727 190.461 313.75 190.461H281.5V238.711H235V57.7109H313.75ZM281.5 151.461H311.5C323.648 151.461 332.141 148.858 337.537 144.191C342.933 139.524 345.75 132.999 345.75 124.211C345.75 115.237 342.921 108.637 337.537 103.98C332.141 99.3139 323.648 96.7109 311.5 96.7109H281.5V151.461Z" fill="black" stroke="white" stroke-width="6"/>
<path d="M147.75 54.7109C161.907 54.7109 174.946 57.0138 186.83 61.6621L187.951 62.1016C199.486 66.7029 209.532 73.0921 218.057 81.2773C227.015 89.7186 233.996 99.6299 238.989 110.988C244.012 122.247 246.5 134.67 246.5 148.211C246.5 161.592 244.01 174.084 239.003 185.652L239 185.66L238.996 185.668C234.002 197.033 227.02 206.949 218.058 215.395L218.056 215.396C209.256 223.677 198.839 230.125 186.842 234.754L186.843 234.755C174.959 239.405 162.001 241.711 148 241.711C133.836 241.711 120.638 239.406 108.434 234.765L108.427 234.763L108.42 234.76C96.4092 230.127 85.9059 223.591 76.9424 215.145L76.9316 215.135L76.9219 215.124C68.1333 206.68 61.2421 196.77 56.2539 185.418L56.2383 185.383C51.401 173.981 49 161.578 49 148.211C49 134.844 51.401 122.441 56.2383 111.039L56.2539 111.004C61.2476 99.639 68.2302 89.7225 77.1924 81.2773C86.1559 72.8309 96.6592 66.2949 108.67 61.6621C120.712 57.0174 133.749 54.7109 147.75 54.7109ZM147.75 95.2109C140.27 95.2109 133.408 96.4812 127.131 98.9893C121.004 101.504 115.59 105.113 110.871 109.832C106.169 114.534 102.473 120.107 99.7842 126.581C97.2779 133.015 96 140.212 96 148.211C96 156.025 97.2718 163.226 99.7842 169.841C102.48 176.332 106.105 181.914 110.649 186.617C115.351 191.312 120.831 194.913 127.114 197.426C133.396 199.938 140.264 201.211 147.75 201.211C155.238 201.211 162.012 199.938 168.111 197.436L168.124 197.431L168.136 197.426C174.431 194.908 179.921 191.298 184.629 186.59C189.325 181.894 192.933 176.332 195.455 169.87L195.479 169.812C198.143 163.386 199.5 156.2 199.5 148.211C199.5 140.222 198.143 133.036 195.479 126.61L195.455 126.552C192.933 120.09 189.325 114.528 184.629 109.832L184.61 109.814L184.593 109.796C180.063 105.11 174.672 101.511 168.386 98.9961C162.104 96.4836 155.236 95.2109 147.75 95.2109Z" fill="black" stroke="white" stroke-width="6"/>
<path d="M129.999 198.211C65.9992 146.211 149.663 66.2885 155.5 53.3243C161.337 40.3601 49.8977 125.082 81.4999 198.211C110.736 265.865 182.333 238.211 206 220.711C327.6 137.111 413.333 137.158 459 147.824C292.6 102.624 182.333 162.711 129.999 198.211Z" fill="#FF0600" stroke="white" stroke-width="5"/>
<path d="M177.947 202.89C164.238 210.309 156.736 215.812 143.847 227.409" stroke="white" stroke-width="5" stroke-linecap="round"/>
<path d="M217.039 179.522C207.862 183.171 202.688 186.145 193.451 192.66" stroke="white" stroke-width="5" stroke-linecap="round"/>
<path d="M262.859 162.086C253.65 164.423 247.924 166.296 237.119 170.236" stroke="white" stroke-width="5" stroke-linecap="round"/>
<path d="M295.734 153.095C290.699 153.993 287.454 154.749 281.086 156.322" stroke="white" stroke-width="5" stroke-linecap="round"/>
<path d="M321.851 146.382C319.1 146.847 317.383 147.231 314.012 147.981" stroke="white" stroke-width="4" stroke-linecap="round"/>
<path d="M341.939 142.382C340.206 142.58 339.127 142.796 337.01 143.216" stroke="white" stroke-width="3" stroke-linecap="round"/>
<path d="M360.988 140.383C359.592 140.417 358.719 140.532 357.005 140.751" stroke="white" stroke-width="2.4" stroke-linecap="round"/>
<path d="M376.992 139.383C375.942 139.385 375.289 139.479 374.005 139.659" stroke="white" stroke-width="2" stroke-linecap="round"/>
<path d="M491.371 288.809V253.9H498.752V282.724H513.718V288.809H491.371Z" fill="#FF0600"/>
<path d="M484.944 271.355C484.944 275.161 484.223 278.4 482.779 281.07C481.348 283.741 479.393 285.781 476.916 287.19C474.45 288.588 471.677 289.286 468.598 289.286C465.495 289.286 462.711 288.582 460.245 287.173C457.779 285.764 455.831 283.724 454.399 281.053C452.967 278.383 452.251 275.15 452.251 271.355C452.251 267.548 452.967 264.309 454.399 261.639C455.831 258.968 457.779 256.934 460.245 255.536C462.711 254.127 465.495 253.423 468.598 253.423C471.677 253.423 474.45 254.127 476.916 255.536C479.393 256.934 481.348 258.968 482.779 261.639C484.223 264.309 484.944 267.548 484.944 271.355ZM477.461 271.355C477.461 268.889 477.092 266.809 476.353 265.116C475.626 263.423 474.598 262.139 473.268 261.264C471.938 260.389 470.382 259.951 468.598 259.951C466.814 259.951 465.257 260.389 463.927 261.264C462.598 262.139 461.563 263.423 460.825 265.116C460.098 266.809 459.734 268.889 459.734 271.355C459.734 273.82 460.098 275.9 460.825 277.593C461.563 279.286 462.598 280.57 463.927 281.445C465.257 282.32 466.814 282.758 468.598 282.758C470.382 282.758 471.938 282.32 473.268 281.445C474.598 280.57 475.626 279.286 476.353 277.593C477.092 275.9 477.461 273.82 477.461 271.355Z" fill="#FF0600"/>
<path d="M446.437 271.355C446.437 275.161 445.716 278.4 444.273 281.07C442.841 283.741 440.886 285.781 438.409 287.19C435.943 288.588 433.17 289.286 430.091 289.286C426.988 289.286 424.204 288.582 421.738 287.173C419.273 285.764 417.324 283.724 415.892 281.053C414.46 278.383 413.744 275.15 413.744 271.355C413.744 267.548 414.46 264.309 415.892 261.639C417.324 258.968 419.273 256.934 421.738 255.536C424.204 254.127 426.988 253.423 430.091 253.423C433.17 253.423 435.943 254.127 438.409 255.536C440.886 256.934 442.841 258.968 444.273 261.639C445.716 264.309 446.437 267.548 446.437 271.355ZM438.954 271.355C438.954 268.889 438.585 266.809 437.846 265.116C437.119 263.423 436.091 262.139 434.761 261.264C433.432 260.389 431.875 259.951 430.091 259.951C428.307 259.951 426.75 260.389 425.42 261.264C424.091 262.139 423.057 263.423 422.318 265.116C421.591 266.809 421.227 268.889 421.227 271.355C421.227 273.82 421.591 275.9 422.318 277.593C423.057 279.286 424.091 280.57 425.42 281.445C426.75 282.32 428.307 282.758 430.091 282.758C431.875 282.758 433.432 282.32 434.761 281.445C436.091 280.57 437.119 279.286 437.846 277.593C438.585 275.9 438.954 273.82 438.954 271.355Z" fill="#FF0600"/>
<path d="M377.585 288.809V253.9H384.966V268.303H399.949V253.9H407.312V288.809H399.949V274.389H384.966V288.809H377.585Z" fill="#FF0600"/>
<path d="M371.333 266.122H363.867C363.73 265.156 363.452 264.298 363.032 263.548C362.611 262.786 362.071 262.139 361.412 261.605C360.753 261.07 359.992 260.661 359.128 260.377C358.276 260.093 357.35 259.951 356.35 259.951C354.543 259.951 352.969 260.4 351.628 261.298C350.287 262.184 349.248 263.48 348.509 265.184C347.77 266.877 347.401 268.934 347.401 271.355C347.401 273.843 347.77 275.934 348.509 277.627C349.259 279.32 350.304 280.599 351.645 281.463C352.986 282.326 354.537 282.758 356.299 282.758C357.287 282.758 358.202 282.627 359.043 282.366C359.895 282.105 360.651 281.724 361.31 281.224C361.969 280.713 362.515 280.093 362.946 279.366C363.39 278.639 363.696 277.809 363.867 276.877L371.333 276.911C371.14 278.514 370.657 280.059 369.884 281.548C369.123 283.025 368.094 284.349 366.799 285.519C365.515 286.678 363.98 287.599 362.196 288.281C360.424 288.951 358.418 289.286 356.179 289.286C353.066 289.286 350.282 288.582 347.827 287.173C345.384 285.764 343.452 283.724 342.032 281.053C340.623 278.383 339.918 275.15 339.918 271.355C339.918 267.548 340.634 264.309 342.066 261.639C343.498 258.968 345.441 256.934 347.895 255.536C350.35 254.127 353.111 253.423 356.179 253.423C358.202 253.423 360.077 253.707 361.804 254.275C363.543 254.843 365.083 255.673 366.424 256.764C367.765 257.843 368.855 259.167 369.696 260.735C370.549 262.303 371.094 264.099 371.333 266.122Z" fill="#FF0600"/>
<path d="M327.056 263.94C326.919 262.565 326.334 261.497 325.3 260.735C324.266 259.974 322.862 259.593 321.09 259.593C319.885 259.593 318.868 259.764 318.039 260.105C317.209 260.434 316.573 260.894 316.13 261.485C315.698 262.076 315.482 262.747 315.482 263.497C315.459 264.122 315.59 264.667 315.874 265.133C316.169 265.599 316.573 266.002 317.084 266.343C317.595 266.673 318.186 266.963 318.857 267.213C319.527 267.451 320.243 267.656 321.005 267.826L324.141 268.576C325.664 268.917 327.061 269.372 328.334 269.94C329.607 270.508 330.709 271.207 331.641 272.036C332.573 272.866 333.294 273.843 333.806 274.968C334.328 276.093 334.595 277.383 334.607 278.838C334.595 280.974 334.05 282.826 332.97 284.394C331.902 285.951 330.357 287.161 328.334 288.025C326.323 288.877 323.897 289.303 321.056 289.303C318.237 289.303 315.783 288.872 313.692 288.008C311.612 287.144 309.987 285.866 308.817 284.173C307.658 282.468 307.05 280.36 306.993 277.849H314.135C314.215 279.019 314.55 279.997 315.141 280.781C315.743 281.553 316.544 282.139 317.544 282.536C318.556 282.923 319.698 283.116 320.97 283.116C322.22 283.116 323.306 282.934 324.226 282.57C325.158 282.207 325.88 281.701 326.391 281.053C326.902 280.406 327.158 279.661 327.158 278.82C327.158 278.036 326.925 277.377 326.459 276.843C326.005 276.309 325.334 275.855 324.448 275.48C323.573 275.105 322.499 274.764 321.226 274.457L317.425 273.502C314.482 272.786 312.158 271.667 310.453 270.144C308.749 268.622 307.902 266.57 307.914 263.991C307.902 261.877 308.465 260.031 309.601 258.451C310.749 256.872 312.323 255.639 314.323 254.752C316.323 253.866 318.595 253.423 321.141 253.423C323.732 253.423 325.993 253.866 327.925 254.752C329.868 255.639 331.38 256.872 332.459 258.451C333.539 260.031 334.095 261.86 334.13 263.94H327.056Z" fill="#FF0600"/>
<path d="M281.721 265.184C281.483 264.355 281.147 263.622 280.716 262.985C280.284 262.338 279.755 261.792 279.13 261.349C278.517 260.894 277.812 260.548 277.017 260.309C276.233 260.07 275.363 259.951 274.409 259.951C272.625 259.951 271.057 260.394 269.704 261.281C268.363 262.167 267.318 263.457 266.568 265.15C265.818 266.832 265.443 268.889 265.443 271.32C265.443 273.752 265.812 275.82 266.551 277.525C267.29 279.23 268.335 280.531 269.687 281.428C271.039 282.315 272.636 282.758 274.477 282.758C276.147 282.758 277.574 282.463 278.755 281.872C279.949 281.269 280.858 280.423 281.483 279.332C282.119 278.241 282.437 276.951 282.437 275.463L283.937 275.684H274.937V270.127H289.545V274.525C289.545 277.593 288.897 280.23 287.602 282.434C286.307 284.627 284.522 286.32 282.25 287.514C279.977 288.695 277.375 289.286 274.443 289.286C271.17 289.286 268.295 288.565 265.818 287.122C263.341 285.667 261.409 283.605 260.022 280.934C258.647 278.252 257.96 275.07 257.96 271.389C257.96 268.559 258.369 266.036 259.187 263.82C260.017 261.593 261.176 259.707 262.665 258.161C264.153 256.616 265.886 255.44 267.863 254.633C269.841 253.826 271.983 253.423 274.29 253.423C276.267 253.423 278.108 253.713 279.812 254.292C281.517 254.86 283.028 255.667 284.346 256.713C285.676 257.758 286.761 259.002 287.602 260.445C288.443 261.877 288.983 263.457 289.221 265.184H281.721Z" fill="#FF0600"/>
<path d="M251.515 253.9V288.809H245.14L229.953 266.838H229.697V288.809H222.316V253.9H228.794L243.862 275.855H244.169V253.9H251.515Z" fill="#FF0600"/>
<path d="M215.284 253.9V288.809H207.903V253.9H215.284Z" fill="#FF0600"/>
<path d="M177.344 253.9L185.782 280.423H186.106L194.56 253.9H202.742L190.708 288.809H181.197L169.146 253.9H177.344Z" fill="#FF0600"/>
<path d="M164.005 253.9V288.809H156.624V253.9H164.005Z" fill="#FF0600"/>
<path d="M124.164 288.809V253.9H137.937C140.573 253.9 142.823 254.372 144.687 255.315C146.562 256.247 147.988 257.57 148.965 259.286C149.954 260.991 150.448 262.997 150.448 265.303C150.448 267.622 149.948 269.616 148.948 271.286C147.948 272.945 146.499 274.218 144.602 275.105C142.715 275.991 140.431 276.434 137.749 276.434H128.528V270.502H136.556C137.965 270.502 139.136 270.309 140.067 269.923C140.999 269.536 141.692 268.957 142.147 268.184C142.613 267.411 142.846 266.451 142.846 265.303C142.846 264.144 142.613 263.167 142.147 262.372C141.692 261.576 140.994 260.974 140.05 260.565C139.119 260.144 137.942 259.934 136.522 259.934H131.545V288.809H124.164ZM143.016 272.923L151.692 288.809H143.545L135.056 272.923H143.016Z" fill="#FF0600"/>
<path d="M100.657 288.809H88.2822V253.9H100.759C104.271 253.9 107.294 254.599 109.828 255.997C112.362 257.383 114.311 259.377 115.674 261.98C117.049 264.582 117.737 267.695 117.737 271.32C117.737 274.957 117.049 278.082 115.674 280.695C114.311 283.309 112.35 285.315 109.794 286.713C107.248 288.11 104.203 288.809 100.657 288.809ZM95.6629 282.485H100.35C102.532 282.485 104.367 282.099 105.856 281.326C107.356 280.542 108.481 279.332 109.231 277.695C109.992 276.048 110.373 273.923 110.373 271.32C110.373 268.741 109.992 266.633 109.231 264.997C108.481 263.36 107.362 262.156 105.873 261.383C104.384 260.61 102.549 260.224 100.367 260.224H95.6629V282.485Z" fill="#FF0600"/>
</svg>
